<svg width="84" height="16" viewBox="0 0 84 16" fill="none" xmlns="http://www.w3.org/2000/svg">
<path d="M7.61958 1.17082C7.73932 0.802295 8.26068 0.802296 8.38042 1.17082L9.70631 5.25147C9.75986 5.41628 9.91344 5.52786 10.0867 5.52786H14.3774C14.7649 5.52786 14.926 6.02371 14.6125 6.25147L11.1413 8.77345C11.0011 8.87531 10.9424 9.05586 10.996 9.22066L12.3219 13.3013C12.4416 13.6698 12.0198 13.9763 11.7063 13.7485L8.23511 11.2265C8.09492 11.1247 7.90508 11.1247 7.76489 11.2265L4.29368 13.7485C3.98019 13.9763 3.5584 13.6698 3.67814 13.3013L5.00402 9.22067C5.05757 9.05586 4.99891 8.87531 4.85872 8.77345L1.38751 6.25147C1.07402 6.02371 1.23513 5.52786 1.62262 5.52786H5.91327C6.08656 5.52786 6.24014 5.41628 6.29369 5.25147L7.61958 1.17082Z" fill="black"/>
<path d="M24.6196 1.17082C24.7393 0.802295 25.2607 0.802296 25.3804 1.17082L26.7063 5.25147C26.7599 5.41628 26.9134 5.52786 27.0867 5.52786H31.3774C31.7649 5.52786 31.926 6.02371 31.6125 6.25147L28.1413 8.77345C28.0011 8.87531 27.9424 9.05586 27.996 9.22066L29.3219 13.3013C29.4416 13.6698 29.0198 13.9763 28.7063 13.7485L25.2351 11.2265C25.0949 11.1247 24.9051 11.1247 24.7649 11.2265L21.2937 13.7485C20.9802 13.9763 20.5584 13.6698 20.6781 13.3013L22.004 9.22067C22.0576 9.05586 21.9989 8.87531 21.8587 8.77345L18.3875 6.25147C18.074 6.02371 18.2351 5.52786 18.6226 5.52786H22.9133C23.0866 5.52786 23.2401 5.41628 23.2937 5.25147L24.6196 1.17082Z" fill="black"/>
<path d="M41.6196 1.17082C41.7393 0.802295 42.2607 0.802296 42.3804 1.17082L43.7063 5.25147C43.7599 5.41628 43.9134 5.52786 44.0867 5.52786H48.3774C48.7649 5.52786 48.926 6.02371 48.6125 6.25147L45.1413 8.77345C45.0011 8.87531 44.9424 9.05586 44.996 9.22066L46.3219 13.3013C46.4416 13.6698 46.0198 13.9763 45.7063 13.7485L42.2351 11.2265C42.0949 11.1247 41.9051 11.1247 41.7649 11.2265L38.2937 13.7485C37.9802 13.9763 37.5584 13.6698 37.6781 13.3013L39.004 9.22067C39.0576 9.05586 38.9989 8.87531 38.8587 8.77345L35.3875 6.25147C35.074 6.02371 35.2351 5.52786 35.6226 5.52786H39.9133C40.0866 5.52786 40.2401 5.41628 40.2937 5.25147L41.6196 1.17082Z" fill="black"/>
<path d="M58.6196 1.17082C58.7393 0.802295 59.2607 0.802296 59.3804 1.17082L60.7063 5.25147C60.7599 5.41628 60.9134 5.52786 61.0867 5.52786H65.3774C65.7649 5.52786 65.926 6.02371 65.6125 6.25147L62.1413 8.77345C62.0011 8.87531 61.9424 9.05586 61.996 9.22066L63.3219 13.3013C63.4416 13.6698 63.0198 13.9763 62.7063 13.7485L59.2351 11.2265C59.0949 11.1247 58.9051 11.1247 58.7649 11.2265L55.2937 13.7485C54.9802 13.9763 54.5584 13.6698 54.6781 13.3013L56.004 9.22067C56.0576 9.05586 55.9989 8.87531 55.8587 8.77345L52.3875 6.25147C52.074 6.02371 52.2351 5.52786 52.6226 5.52786H56.9133C57.0866 5.52786 57.2401 5.41628 57.2937 5.25147L58.6196 1.17082Z" fill="black"/>
<path d="M75.6196 1.17082C75.7393 0.802295 76.2607 0.802296 76.3804 1.17082L77.7063 5.25147C77.7599 5.41628 77.9134 5.52786 78.0867 5.52786H82.3774C82.7649 5.52786 82.926 6.02371 82.6125 6.25147L79.1413 8.77345C79.0011 8.87531 78.9424 9.05586 78.996 9.22066L80.3219 13.3013C80.4416 13.6698 80.0198 13.9763 79.7063 13.7485L76.2351 11.2265C76.0949 11.1247 75.9051 11.1247 75.7649 11.2265L72.2937 13.7485C71.9802 13.9763 71.5584 13.6698 71.6781 13.3013L73.004 9.22067C73.0576 9.05586 72.9989 8.87531 72.8587 8.77345L69.3875 6.25147C69.074 6.02371 69.2351 5.52786 69.6226 5.52786H73.9133C74.0866 5.52786 74.2401 5.41628 74.2937 5.25147L75.6196 1.17082Z" fill="black"/>
</svg>
